<svg xmlns="http://www.w3.org/2000/svg" viewBox="20 142.75038538237249 534.9965677467629 289.49922923525503">
    <g transform="rotate(0 175.43836033950438 287.5)">
        <svg xmlns="http://www.w3.org/2000/svg" xmlns:xlink="http://www.w3.org/1999/xlink" version="1.1" id="nnnn_1" x="90" y="212.75038538237249" viewBox="1678.919921875 781.6400146484375 1642.16015625 1436.7200927734375" xml:space="preserve" height="149.49922923525503" width="170.87672067900877" preserveAspectRatio="xMinYMin" enable-background="new 0 0 5000 3000" style="overflow: visible;"><path class="st0" d="M2561.02,1305.49l760.06-509.28L2500,1199.8l-821.08-403.59l760.06,509.28l61.02,912.87L2561.02,1305.49z    M2500,1270.26L2500,1270.26L2500,1270.26L2500,1270.26z" style="fill:  #f9f9f9; fill-opacity: 1;"></path><polygon
                class="st0" points="2253.42,1409.7 2308.19,1915.29 2316.62,1371.78 1853.16,1099.29  "
                style="fill: #f9f9f9; fill-opacity: 1;"></polygon><polygon class="st0"
                                                                           points="2744.04,1414.08 3154.51,1113.85 2679.61,1378.31 2675.35,1915.93  "
                                                                           style="fill:  #f9f9f9; fill-opacity: 1;"></polygon><polygon
                class="st0" points="2502.53,987 2037.29,781.64 2503.77,1060.69 2971.49,795.57  "
                style="fill: #f9f9f9; fill-opacity: 1;"></polygon></svg>
    </g>
    <g transform="rotate(0 387.8865671364114 315.306879417377)">
        <svg y="310.82187976069974" viewBox="0.75 3.3600001335144043 194.22000122070312 8.969999313354492"
             x="290.7765665260598" height="8.969999313354492" width="194.22000122070312" style="overflow: visible;">
            <g fill=" #f9f9f9" style="">
                <path d="M5.78 9.92L5.78 10.18Q5.78 10.63 5.60 11.02Q5.42 11.41 5.12 11.70Q4.82 11.99 4.42 12.16Q4.02 12.33 3.58 12.33L3.58 12.33L2.95 12.33Q2.51 12.33 2.11 12.16Q1.71 11.99 1.41 11.70Q1.11 11.41 0.93 11.02Q0.75 10.63 0.75 10.18L0.75 10.18L0.75 9.84L1.53 9.71L1.53 10.18Q1.53 10.48 1.65 10.73Q1.77 10.98 1.97 11.17Q2.17 11.36 2.44 11.47Q2.70 11.58 2.99 11.58L2.99 11.58L3.54 11.58Q3.83 11.58 4.09 11.47Q4.36 11.36 4.56 11.17Q4.76 10.98 4.88 10.73Q4.99 10.48 4.99 10.18L4.99 10.18L4.99 9.92Q4.99 9.47 4.82 9.17Q4.64 8.88 4.35 8.67Q4.06 8.46 3.69 8.31Q3.32 8.16 2.93 8.02Q2.54 7.87 2.17 7.70Q1.81 7.52 1.51 7.25Q1.22 6.99 1.05 6.61Q0.87 6.22 0.87 5.66L0.87 5.66L0.87 5.50Q0.87 5.06 1.04 4.67Q1.20 4.28 1.50 3.98Q1.79 3.69 2.18 3.53Q2.57 3.36 3.02 3.36L3.02 3.36L3.58 3.36Q4.02 3.36 4.41 3.53Q4.80 3.69 5.09 3.98Q5.38 4.28 5.55 4.67Q5.72 5.06 5.72 5.50L5.72 5.50L5.72 5.72L4.93 5.85L4.93 5.50Q4.93 5.21 4.82 4.96Q4.71 4.70 4.53 4.51Q4.34 4.33 4.09 4.22Q3.83 4.11 3.54 4.11L3.54 4.11L3.05 4.11Q2.76 4.11 2.51 4.22Q2.26 4.33 2.07 4.51Q1.87 4.70 1.76 4.96Q1.65 5.21 1.65 5.50L1.65 5.50L1.65 5.66Q1.65 6.08 1.83 6.37Q2.01 6.66 2.30 6.86Q2.59 7.06 2.96 7.21Q3.33 7.36 3.72 7.52Q4.11 7.67 4.47 7.86Q4.84 8.04 5.13 8.31Q5.43 8.58 5.60 8.97Q5.78 9.36 5.78 9.92L5.78 9.92ZM15.15 4.23L13.07 4.23L13.07 12.20L12.29 12.20L12.29 4.23L10.20 4.23L10.20 3.48L15.15 3.48L15.15 4.23ZM24.89 12.20L23.99 12.20L21.62 8.48L20.54 8.48L20.54 12.20L19.76 12.20L19.76 3.48L22.53 3.48Q22.97 3.48 23.36 3.65Q23.75 3.81 24.04 4.11Q24.33 4.40 24.50 4.79Q24.67 5.18 24.67 5.63L24.67 5.63L24.67 6.33Q24.67 6.78 24.50 7.17Q24.33 7.56 24.04 7.85Q23.75 8.15 23.36 8.31Q22.97 8.48 22.53 8.48L22.53 8.48L24.89 12.20ZM23.88 6.33L23.88 5.63Q23.88 5.34 23.77 5.08Q23.66 4.83 23.48 4.64Q23.29 4.45 23.04 4.34Q22.78 4.23 22.49 4.23L22.49 4.23L20.54 4.23L20.54 7.73L22.49 7.73Q22.78 7.73 23.04 7.62Q23.29 7.51 23.48 7.32Q23.66 7.13 23.77 6.88Q23.88 6.63 23.88 6.33L23.88 6.33ZM33.73 12.20L33.15 10.17L30.39 10.17L29.82 12.20L29.00 12.20L31.56 3.48L31.97 3.48L34.54 12.20L33.73 12.20ZM31.75 5.40L30.60 9.42L32.94 9.42L31.80 5.40L31.77 5.08L31.75 5.40ZM42.97 4.23L40.89 4.23L40.89 12.20L40.11 12.20L40.11 4.23L38.03 4.23L38.03 3.48L42.97 3.48L42.97 4.23ZM52.62 12.20L47.71 12.20L47.71 3.48L52.62 3.48L52.62 4.23L48.49 4.23L48.49 7.47L51.83 7.47L51.83 8.22L48.49 8.22L48.49 11.46L52.62 11.46L52.62 12.20ZM62.39 7.62L62.39 12.20L62.14 12.20L61.68 11.50Q61.39 11.88 60.99 12.10Q60.58 12.33 60.08 12.33L60.08 12.33L59.62 12.33Q59.18 12.33 58.79 12.16Q58.39 11.99 58.10 11.70Q57.81 11.41 57.64 11.02Q57.48 10.63 57.48 10.18L57.48 10.18L57.48 5.50Q57.48 5.06 57.64 4.67Q57.81 4.28 58.10 3.98Q58.39 3.69 58.79 3.53Q59.18 3.36 59.62 3.36L59.62 3.36L60.24 3.36Q60.69 3.36 61.08 3.53Q61.47 3.69 61.76 3.98Q62.05 4.28 62.22 4.67Q62.39 5.06 62.39 5.50L62.39 5.50L62.39 5.85L61.60 5.97L61.60 5.50Q61.60 5.21 61.49 4.96Q61.38 4.70 61.19 4.51Q61.00 4.33 60.75 4.22Q60.50 4.11 60.21 4.11L60.21 4.11L59.66 4.11Q59.37 4.11 59.12 4.22Q58.86 4.33 58.67 4.51Q58.48 4.70 58.37 4.96Q58.26 5.21 58.26 5.50L58.26 5.50L58.26 10.18Q58.26 10.48 58.37 10.73Q58.48 10.98 58.67 11.17Q58.86 11.36 59.12 11.47Q59.37 11.58 59.66 11.58L59.66 11.58L60.21 11.58Q60.50 11.58 60.75 11.47Q61.00 11.36 61.19 11.17Q61.38 10.98 61.49 10.73Q61.60 10.48 61.60 10.18L61.60 10.18L61.60 8.37L60.21 8.37L60.21 7.62L62.39 7.62ZM68.53 12.20L67.75 12.20L67.75 3.48L68.53 3.48L68.53 12.20ZM78.80 10.18L78.80 10.18Q78.80 10.63 78.63 11.02Q78.46 11.41 78.17 11.70Q77.88 11.99 77.49 12.16Q77.10 12.33 76.66 12.33L76.66 12.33L76.04 12.33Q75.59 12.33 75.20 12.16Q74.81 11.99 74.52 11.70Q74.22 11.41 74.06 11.02Q73.89 10.63 73.89 10.18L73.89 10.18L73.89 5.50Q73.89 5.06 74.06 4.67Q74.22 4.28 74.52 3.98Q74.81 3.69 75.20 3.53Q75.59 3.36 76.04 3.36L76.04 3.36L76.66 3.36Q77.10 3.36 77.49 3.53Q77.88 3.69 78.17 3.98Q78.46 4.28 78.63 4.67Q78.80 5.06 78.80 5.50L78.80 5.50L78.80 5.85L78.01 5.97L78.01 5.50Q78.01 5.21 77.90 4.96Q77.79 4.70 77.61 4.51Q77.42 4.33 77.17 4.22Q76.91 4.11 76.62 4.11L76.62 4.11L76.07 4.11Q75.78 4.11 75.53 4.22Q75.28 4.33 75.08 4.51Q74.89 4.70 74.78 4.96Q74.67 5.21 74.67 5.50L74.67 5.50L74.67 10.18Q74.67 10.48 74.78 10.73Q74.89 10.98 75.08 11.17Q75.28 11.36 75.53 11.47Q75.78 11.58 76.07 11.58L76.07 11.58L76.62 11.58Q76.91 11.58 77.17 11.47Q77.42 11.36 77.61 11.17Q77.79 10.98 77.90 10.73Q78.01 10.48 78.01 10.18L78.01 10.18L78.01 9.71L78.80 9.84L78.80 10.18ZM91.17 12.20L90.39 12.20L90.39 3.48L91.17 3.48L91.17 12.20ZM101.57 12.20L101.15 12.20L97.51 5.85L97.44 5.48L97.44 12.20L96.66 12.20L96.66 3.48L97.06 3.48L100.70 9.84L100.78 10.21L100.78 3.48L101.57 3.48L101.57 12.20ZM111.25 4.23L109.17 4.23L109.17 12.20L108.38 12.20L108.38 4.23L106.30 4.23L106.30 3.48L111.25 3.48L111.25 4.23ZM120.89 12.20L115.98 12.20L115.98 3.48L120.89 3.48L120.89 4.23L116.77 4.23L116.77 7.47L120.11 7.47L120.11 8.22L116.77 8.22L116.77 11.46L120.89 11.46L120.89 12.20ZM129.87 12.20L125.75 12.20L125.75 3.48L126.53 3.48L126.53 11.46L129.87 11.46L129.87 12.20ZM138.61 12.20L134.48 12.20L134.48 3.48L135.27 3.48L135.27 11.46L138.61 11.46L138.61 12.20ZM144.13 12.20L143.34 12.20L143.34 3.48L144.13 3.48L144.13 12.20ZM154.39 7.62L154.39 12.20L154.14 12.20L153.69 11.50Q153.40 11.88 152.99 12.10Q152.59 12.33 152.09 12.33L152.09 12.33L151.63 12.33Q151.19 12.33 150.80 12.16Q150.40 11.99 150.11 11.70Q149.82 11.41 149.65 11.02Q149.48 10.63 149.48 10.18L149.48 10.18L149.48 5.50Q149.48 5.06 149.65 4.67Q149.82 4.28 150.11 3.98Q150.40 3.69 150.80 3.53Q151.19 3.36 151.63 3.36L151.63 3.36L152.25 3.36Q152.70 3.36 153.09 3.53Q153.48 3.69 153.77 3.98Q154.06 4.28 154.23 4.67Q154.39 5.06 154.39 5.50L154.39 5.50L154.39 5.85L153.61 5.97L153.61 5.50Q153.61 5.21 153.50 4.96Q153.39 4.70 153.20 4.51Q153.01 4.33 152.76 4.22Q152.51 4.11 152.22 4.11L152.22 4.11L151.67 4.11Q151.38 4.11 151.12 4.22Q150.87 4.33 150.68 4.51Q150.49 4.70 150.38 4.96Q150.27 5.21 150.27 5.50L150.27 5.50L150.27 10.18Q150.27 10.48 150.38 10.73Q150.49 10.98 150.68 11.17Q150.87 11.36 151.12 11.47Q151.38 11.58 151.67 11.58L151.67 11.58L152.22 11.58Q152.51 11.58 152.76 11.47Q153.01 11.36 153.20 11.17Q153.39 10.98 153.50 10.73Q153.61 10.48 153.61 10.18L153.61 10.18L153.61 8.37L152.22 8.37L152.22 7.62L154.39 7.62ZM164.67 12.20L159.76 12.20L159.76 3.48L164.67 3.48L164.67 4.23L160.54 4.23L160.54 7.47L163.88 7.47L163.88 8.22L160.54 8.22L160.54 11.46L164.67 11.46L164.67 12.20ZM174.56 12.20L174.15 12.20L170.51 5.85L170.44 5.48L170.44 12.20L169.65 12.20L169.65 3.48L170.06 3.48L173.70 9.84L173.78 10.21L173.78 3.48L174.56 3.48L174.56 12.20ZM184.83 10.18L184.83 10.18Q184.83 10.63 184.66 11.02Q184.49 11.41 184.20 11.70Q183.91 11.99 183.52 12.16Q183.13 12.33 182.68 12.33L182.68 12.33L182.06 12.33Q181.62 12.33 181.23 12.16Q180.84 11.99 180.54 11.70Q180.25 11.41 180.08 11.02Q179.92 10.63 179.92 10.18L179.92 10.18L179.92 5.50Q179.92 5.06 180.08 4.67Q180.25 4.28 180.54 3.98Q180.84 3.69 181.23 3.53Q181.62 3.36 182.06 3.36L182.06 3.36L182.68 3.36Q183.13 3.36 183.52 3.53Q183.91 3.69 184.20 3.98Q184.49 4.28 184.66 4.67Q184.83 5.06 184.83 5.50L184.83 5.50L184.83 5.85L184.04 5.97L184.04 5.50Q184.04 5.21 183.93 4.96Q183.82 4.70 183.63 4.51Q183.45 4.33 183.19 4.22Q182.94 4.11 182.65 4.11L182.65 4.11L182.10 4.11Q181.81 4.11 181.56 4.22Q181.30 4.33 181.11 4.51Q180.92 4.70 180.81 4.96Q180.70 5.21 180.70 5.50L180.70 5.50L180.70 10.18Q180.70 10.48 180.81 10.73Q180.92 10.98 181.11 11.17Q181.30 11.36 181.56 11.47Q181.81 11.58 182.10 11.58L182.10 11.58L182.65 11.58Q182.94 11.58 183.19 11.47Q183.45 11.36 183.63 11.17Q183.82 10.98 183.93 10.73Q184.04 10.48 184.04 10.18L184.04 10.18L184.04 9.71L184.83 9.84L184.83 10.18ZM194.97 12.20L190.06 12.20L190.06 3.48L194.97 3.48L194.97 4.23L190.85 4.23L190.85 7.47L194.19 7.47L194.19 8.22L190.85 8.22L190.85 11.46L194.97 11.46L194.97 12.20Z"
                      transform="translate(0, 0)"></path>
            </g>
        </svg>
    </g>
    <g transform="rotate(0 381.8215646950051 277.6331657222454)">
        <svg y="255.20816648518488" viewBox="1.159999966621399 9.130000114440918 182.08999633789062 44.849998474121094"
             x="290.7765665260598" height="44.849998474121094" width="182.08999633789062" style="overflow: visible;">
            <g fill="#f9f9f9" style="">
                <path d="M28.18 36.88L12.93 36.88L9.01 46.63Q8.09 48.89 8.09 50.36L8.09 50.36Q8.09 52.38 9.93 53.24L9.93 53.24L1.16 53.24Q1.78 53.24 2.94 52.02Q4.11 50.79 5.64 47.18L5.64 47.18L21.63 9.13L37.50 47.36Q38.84 50.67 40.10 51.89Q41.36 53.12 42.09 53.24L42.09 53.24L31.92 53.24Q33.45 52.51 33.45 50.98L33.45 50.98Q33.45 49.69 32.47 47.30L32.47 47.30L28.18 36.88ZM13.97 34.37L27.20 34.37L20.53 18.01L13.97 34.37ZM75.36 53.24L52.26 53.24Q52.26 53.43 53.00 52.97Q53.73 52.51 54.31 51.13Q54.90 49.75 54.90 47.12L54.90 47.12L54.90 17.03Q54.90 14.52 54.31 13.20Q53.73 11.89 53.00 11.40Q52.26 10.91 52.26 11.09L52.26 11.09L74.44 11.09L74.44 17.22Q73.34 13.54 67.82 13.54L67.82 13.54L59.31 13.54L59.31 30.94L69.85 30.94Q71.07 30.94 71.93 30.54Q72.79 30.14 73.22 29.72Q73.65 29.29 73.71 29.16L73.71 29.16L73.71 35.11Q73.65 34.98 73.22 34.56Q72.79 34.13 71.96 33.76Q71.13 33.39 69.91 33.39L69.91 33.39L59.31 33.39L59.31 50.79L68.87 50.79Q71.62 50.79 73.61 49.66Q75.61 48.52 76.46 46.75L76.46 46.75L75.36 53.24ZM100.66 53.98Q97.48 53.98 94.54 53.09Q91.60 52.20 89.27 50.61L89.27 50.61L89.27 43.19Q90.86 47.30 94.14 49.41Q97.42 51.53 100.97 51.53L100.97 51.53Q104.52 51.53 106.91 49.17Q109.30 46.81 109.30 43.32L109.30 43.32Q109.30 40.99 108.35 39.33Q107.40 37.68 105.32 36.24Q103.24 34.80 99.44 33.02L99.44 33.02Q94.11 30.57 91.69 27.91Q89.27 25.24 89.27 21.44L89.27 21.44Q89.27 18.20 90.83 15.65Q92.39 13.11 95.06 11.73Q97.72 10.35 100.91 10.35L100.91 10.35Q103.67 10.35 106.30 11.12Q108.94 11.89 111.20 13.30L111.20 13.30L111.20 19.91Q109.73 16.54 106.76 14.67Q103.79 12.81 100.73 12.81L100.73 12.81Q97.23 12.81 95.09 15.07Q92.94 17.34 92.94 20.46L92.94 20.46Q92.94 22.73 94.23 24.35Q95.52 25.98 97.39 27.08Q99.26 28.18 102.63 29.78L102.63 29.78Q106.06 31.43 108.26 32.84Q110.47 34.25 111.94 36.52Q113.41 38.78 113.41 42.03L113.41 42.03Q113.41 45.71 111.66 48.40Q109.92 51.10 107.01 52.54Q104.10 53.98 100.66 53.98L100.66 53.98ZM126.70 53.24Q126.70 53.43 127.44 52.97Q128.17 52.51 128.79 51.25Q129.40 50.00 129.40 47.54L129.40 47.54L129.40 16.79Q129.40 14.34 128.82 13.08Q128.24 11.82 127.50 11.40Q126.77 10.97 126.77 11.09L126.77 11.09L136.51 11.09Q136.51 10.97 135.77 11.40Q135.04 11.82 134.42 13.08Q133.81 14.34 133.81 16.79L133.81 16.79L133.81 47.54Q133.81 50.00 134.42 51.25Q135.04 52.51 135.77 52.94Q136.51 53.37 136.51 53.24L136.51 53.24L126.70 53.24ZM163.10 32.04Q165.92 32.04 168.00 30.73Q170.08 29.41 171.15 27.30Q172.23 25.18 172.23 22.85L172.23 22.85Q172.23 20.46 171.22 18.35Q170.20 16.24 168.12 14.89Q166.04 13.54 163.04 13.54L163.04 13.54L157.83 13.54L157.83 47.61Q157.83 50.06 158.44 51.31Q159.05 52.57 159.79 52.97Q160.52 53.37 160.52 53.24L160.52 53.24L150.78 53.24Q150.78 53.37 151.52 52.94Q152.25 52.51 152.83 51.28Q153.42 50.06 153.42 47.61L153.42 47.61L153.42 16.97Q153.42 14.46 152.83 13.14Q152.25 11.82 151.52 11.37Q150.78 10.91 150.78 11.09L150.78 11.09L162.91 11.09Q167.69 11.09 170.79 12.65Q173.88 14.21 175.26 16.70Q176.64 19.18 176.64 22.12L176.64 22.12Q176.64 24.57 175.47 26.93Q174.31 29.29 172.13 31.03Q169.96 32.78 167.08 33.45L167.08 33.45L166.10 33.64L176.88 47.36Q179.03 49.75 180.44 51.04Q181.85 52.32 182.49 52.75Q183.13 53.18 183.25 53.24L183.25 53.24L176.09 53.24L159.42 32.04L163.10 32.04Z"
                      transform="translate(0, 0)"></path>
            </g>
        </svg>
    </g>
</svg>